<svg xmlns="http://www.w3.org/2000/svg" viewBox="0 0 1085.64 469.79"><defs><style>.cls-1{fill:#29abe2;}.cls-2{fill:#f0f;}.cls-3{fill:none;}</style></defs><g id="Layer_8" data-name="Layer 8"><path class="cls-1" d="M205.35,364.21a123.59,123.59,0,0,0-12.92-95.7,295.23,295.23,0,0,0-27-35.69,295.91,295.91,0,0,0-36.07-34.56,182.71,182.71,0,0,1-42.54-42.91A192.14,192.14,0,0,1,58.51,92.69,198.68,198.68,0,0,1,55,12.94L42.81,62.31a178.51,178.51,0,0,0,1.9,70.25A171,171,0,0,0,58,169.65a172.64,172.64,0,0,0,22.54,33.93C93.88,219.83,106.34,230,117,238.51a309.23,309.23,0,0,0,39.18,26.78,201.64,201.64,0,0,1-72.6-46.65A166.83,166.83,0,0,1,44,157.25a244,244,0,0,1-8.35-29c-1.54-6.94-2.69-13.54-3.55-19.75A232.49,232.49,0,0,0,30.28,155c.78,12.34,1.64,24.76,6.58,40.25A136.14,136.14,0,0,0,52.43,228,125.65,125.65,0,0,0,109,272.06l28.6,11.77a132.73,132.73,0,0,1-33.79-7.34,142.54,142.54,0,0,1-41.78-24.3c-8.09-6.72-18-14.93-26.58-29.24a100,100,0,0,1-12.53-33.3,127.4,127.4,0,0,0,6.58,50.26c3.62,10.44,9,25.3,22.53,39C62.47,289.38,72.93,294.33,85,300a171.9,171.9,0,0,0,39.56,13.15,187.45,187.45,0,0,1,31.2,11.41c10.29,4.85,20.88,9.93,32.15,19.87A107.66,107.66,0,0,1,205.35,364.21Z"/><path class="cls-2" d="M350.66,283.83a65.5,65.5,0,0,0-4.81-23,64.72,64.72,0,0,0-12.66-19.24c-7.54-8-15.06-11.92-22.27-15.69-8.11-4.25-14.72-6.44-23.55-9.37-8-2.65-14.77-4.45-19.68-5.63,9.34-2.92,17.06-5.61,22.72-7.66,13.38-4.85,16.67-6.64,19.37-8.36a61.17,61.17,0,0,0,15.06-13.54A59.72,59.72,0,0,0,336,158.51a58.17,58.17,0,0,0,1.52-18c-1.14-14.63-7.84-24.75-11.9-30.89a70.12,70.12,0,0,0-22.28-22.28c-7.59-4.62-14.17-6.47-21.77-8.6A136.77,136.77,0,0,0,253.45,74c-19-1.24-84.89-2.3-174.43-1.77v8.6H96a25.52,25.52,0,0,1,24,19.75v70.63a379.27,379.27,0,0,1,33.67,30.38,376.1,376.1,0,0,1,34.05,39.88l-.25-19.37c5.13-.13,12.41-.13,21.14.51,9.92.72,15.52,1.15,22.78,3.29,6.12,1.79,13.48,3.95,20.64,10.12,5.06,4.37,7.73,8.78,11,14.18,2.84,4.68,6.62,10.93,8.73,19.87,2.32,9.84,1.37,17.7.38,26-.81,6.79-1.49,12.42-4.43,19.5a59.37,59.37,0,0,1-13.54,19.74,51.57,51.57,0,0,1-16.33,11.14,50,50,0,0,1-15.82,3.8l-2,17.22c12.45-.08,22.87-.79,30.63-1.52a183.3,183.3,0,0,0,22.53-3A149.51,149.51,0,0,0,301.3,354c7.53-3.23,13.69-5.87,21-11.31A71.36,71.36,0,0,0,339,325.86,66.83,66.83,0,0,0,348.89,305,65.33,65.33,0,0,0,350.66,283.83Zm-102-96.07c-1.39,1.39-13.49,13.35-29.81,15.91-5.45.86-15.13,1.26-17.09,1.33-5.84.23-10.71.18-14.12.1V89.4c2.76-.17,6.93-.38,12-.38,6.14,0,10.81.28,11.63.34,5.35.36,30.34,3.67,44.45,24.22,7.75,11.3,8.74,22.76,9.11,27.72C265.17,145.79,266.44,169.75,248.64,187.76Z"/><path class="cls-2" d="M119.78,320.29a63,63,0,0,1,.12,12.4c-.39,4.38-.7,7.86-2.4,11.77a27.48,27.48,0,0,1-9.5,11.4,65.11,65.11,0,0,1-29,3.48v8H199.78a194.95,194.95,0,0,0-80-47.09Z"/><path class="cls-1" d="M499.52,112.49h18.89v59.89A63.33,63.33,0,0,1,515.06,194a35.53,35.53,0,0,1-10.51,15.27q-7.17,6-18.51,9t-27.5,2.95q-16,0-27.34-2.95t-18.51-9A35.36,35.36,0,0,1,402.18,194a63.09,63.09,0,0,1-3.35-21.61V112.49h19.95v59.89a41.31,41.31,0,0,0,2.06,13.86,20.58,20.58,0,0,0,6.7,9.44A30,30,0,0,0,440,201.07a109.16,109.16,0,0,0,38.38,0,30,30,0,0,0,12.42-5.39,20.58,20.58,0,0,0,6.7-9.44,41.31,41.31,0,0,0,2.06-13.86Z"/><path class="cls-1" d="M535.93,219.73V112.49h19.34V201h74.49v18.73Z"/><path class="cls-1" d="M662.05,219.73V131.22H620V112.49H723.44v18.73h-42v88.51Z"/><path class="cls-1" d="M839.06,219.73l-28-29.8H769.6V173.41h46.16q10.5,0,15.84-5.53t5.33-16q0-10.47-5.56-15.56t-15.61-5.09H755.43v88.51H736.24V112.49h79.52a49.29,49.29,0,0,1,16.91,2.72A35,35,0,0,1,845.31,123a34,34,0,0,1,7.92,12.32A45.44,45.44,0,0,1,856,151.58q0,13.42-6,22.49a33.53,33.53,0,0,1-16.84,13.06l33.36,32.6Z"/><path class="cls-1" d="M992,219.73l-16.6-27H923l9.14-15.19h34l-24.68-40.12-50.27,82.31H869.07l63.68-102.67a14.27,14.27,0,0,1,4-4.43,9.22,9.22,0,0,1,5.48-1.62,8.9,8.9,0,0,1,5.41,1.62,15,15,0,0,1,3.88,4.43l63.83,102.67Z"/><path class="cls-1" d="M1053.09,240.52H737.71q-7.41,0-10.36,2.32c-2,1.55-3,4.29-3,8.23a11.28,11.28,0,0,0,1.38,4.7,48.73,48.73,0,0,0,4.65,7.22q3.27,4.39,8.6,10.74t15,17.51a19.73,19.73,0,0,0,2.76-6.4,29.32,29.32,0,0,0,1-7.29,15.26,15.26,0,0,0-1.7-7.46,13.68,13.68,0,0,0-4.58-5,19.78,19.78,0,0,0-6.53-2.69,35.16,35.16,0,0,0-7.78-.82l2-6.28h32.39l-2,6.28H758.3a21.49,21.49,0,0,1,4.46,7.41,27.65,27.65,0,0,1,1.32,8.91,32.28,32.28,0,0,1-1.45,9.48,40.78,40.78,0,0,1-4.08,9.1,33,33,0,0,0,8.66,8,14.85,14.85,0,0,0,9,2.45l-1.51,4.77-16.63.06-5.4-8.29a36,36,0,0,1-11,7.41,32.88,32.88,0,0,1-12.68,2.39,23.84,23.84,0,0,1-8-1.39,22,22,0,0,1-6.91-3.89,17.84,17.84,0,0,1-4.7-6,16.44,16.44,0,0,1-1.7-7.34A21.32,21.32,0,0,1,712,281.38a67.14,67.14,0,0,1,12.18-11.73,26.36,26.36,0,0,1-2.76-3.5,23.72,23.72,0,0,1-4.1-11.74,21.14,21.14,0,0,1,1.93-10.53,16,16,0,0,1,4.06-5.54,16.28,16.28,0,0,1,5.28-3,20.39,20.39,0,0,1,8-1.27l318.73,0Zm-325.17,33.9a22.79,22.79,0,0,0-7.28,7,18,18,0,0,0-2.51,9.86,13.13,13.13,0,0,0,4.26,9.6q4.27,4.21,11.81,4.21a18.09,18.09,0,0,0,7.59-1.76,20.9,20.9,0,0,0,6.47-4.52Z"/><rect class="cls-3" x="399.48" y="233.94" width="314.69" height="6.73" rx="3.23"/><path class="cls-2" d="M393.4,307.67q7.46,0,7.45-10.19v-34.9q0-5-1.71-7.6c-1.15-1.73-3.25-2.59-6.33-2.59l1.18-3.73h22.45a19,19,0,0,1,12.25,3.92q4.9,3.93,4.9,11.08a14.24,14.24,0,0,1-2.69,8.53,11.73,11.73,0,0,1-7.31,4.7v.2q6.77,1.86,10.34,5.88t3.58,10.88a17.12,17.12,0,0,1-4.9,12.59,16.65,16.65,0,0,1-12.35,4.95h-28Zm14.9-32.54q10.29,0,14.07-2.45t3.77-8.14a11.3,11.3,0,0,0-3.18-8.43q-3.19-3.13-8.87-3.14a4.51,4.51,0,0,0-4.61,2.94q-1.19,3-1.18,12Zm0,4.31v16.07q0,4.82.39,10.69a34.22,34.22,0,0,0,8.83.88,10.86,10.86,0,0,0,8.62-3.58q3.14-3.57,3.14-9.85,0-6.56-3.87-10.24t-11.23-4Z"/><path class="cls-2" d="M482,309.34a56.64,56.64,0,0,1-13.24,2q-9.8,0-16-6.28t-6.23-17a28,28,0,0,1,1.62-9.71,22.42,22.42,0,0,1,4.56-7.59,20.34,20.34,0,0,1,6.81-4.9,19.89,19.89,0,0,1,8.19-1.72q8.13,0,13,5.1t4.85,15.68l-31,.79q0,9.4,4.07,14.5t12.69,5.1a49,49,0,0,0,9.51-1.37c1.89-.33,2.94-.53,3.14-.59Zm-11.18-28.82a12,12,0,0,0,4.76-.88,2.74,2.74,0,0,0,1.12-2.55,8,8,0,0,0-3-6,10.78,10.78,0,0,0-7.59-2.75q-5,0-7.45,2.7t-3.92,10.24Z"/><path class="cls-2" d="M531.8,310.12H520v-6.67h-.19a19.22,19.22,0,0,1-6,6.08,16.65,16.65,0,0,1-8.29,1.77,13,13,0,0,1-8.43-2.85,9.51,9.51,0,0,1-3.52-7.84,10,10,0,0,1,1.42-5.29,14.41,14.41,0,0,1,3.77-4.12,34.13,34.13,0,0,1,5-3.09c1.76-.88,4-1.87,6.67-3a75.19,75.19,0,0,0,9-4.32V276a4.94,4.94,0,0,0-2.3-4.31q-2.31-1.57-7.2-1.57a57.88,57.88,0,0,0-11.37,1.66l-2.06.49,2.35-6.37a35.17,35.17,0,0,1,5.44-1.37,51.73,51.73,0,0,1,8.18-.49q8,0,11.23,2.65t3.18,8.92v26.07a4.25,4.25,0,0,0,1.38,3.43c.91.79,2.61,1.21,5.09,1.28Zm-12.35-24.9c-1.5.72-3,1.44-4.6,2.16a57.22,57.22,0,0,0-10.2,5.54,7.22,7.22,0,0,0-3,6,6.73,6.73,0,0,0,1.92,4.9,6.34,6.34,0,0,0,4.75,2q5.38,0,8.28-3.24a10.94,10.94,0,0,0,2.89-7.55Z"/><path class="cls-2" d="M542.66,267.19a70.38,70.38,0,0,0,12.74-3.14c-.07.79-.12,1.57-.15,2.35s0,2.1,0,3.92V295q0,5.21,2.36,7.5a8.94,8.94,0,0,0,6.56,2.31c3.53,0,6.33-.95,8.38-2.85a9.52,9.52,0,0,0,3.09-7.35V276c0-2-.55-3.45-1.67-4.27s-3.23-1.22-6.37-1.22l1.18-3.33q9.79-1.77,14.51-3.14c-.07.79-.12,1.57-.15,2.35s-.05,2.1-.05,3.92V301.1c0,2,.49,3.32,1.47,4.07a8.45,8.45,0,0,0,4.8,1.23l-1,3.72H576v-6.47h-.19a18.75,18.75,0,0,1-6.42,5.39,17.35,17.35,0,0,1-8.29,2.26q-13.32,0-13.33-14.31V276.6q0-3.53-1.32-4.71t-4.95-1.37Z"/><path class="cls-2" d="M598.82,272.19l1.18-3.73a10.37,10.37,0,0,0,6-3.43c1.27-1.63,2.14-4.41,2.59-8.33l4.71-2v12.55h9.31a15,15,0,0,0,5.88-1l-1.67,5.88H613.33v28.42q0,3.63,2.25,4.86t8.43,1.22c.79,0,1.67,0,2.65-.1l1.18-.1-1.18,5.3a34.53,34.53,0,0,1-3.87.73,35.28,35.28,0,0,1-4.36.25,15.08,15.08,0,0,1-8.83-2.6,8.13,8.13,0,0,1-3.72-7v-31Z"/><path class="cls-2" d="M635.6,326a28.12,28.12,0,0,0,6.42-.59,8.49,8.49,0,0,0,4-2.16,15.29,15.29,0,0,0,3-4.36q1.38-2.79,3.43-8.18l-13.72-33.92c-1.18-3-2.27-5-3.28-6a8.42,8.42,0,0,0-5-1.86l1.17-3.72h22.55L653.05,269c-2.87.07-4.74.36-5.59.88a3.08,3.08,0,0,0-1.27,2.85,7.67,7.67,0,0,0,.54,2.4q.54,1.51,3,7.89,1.66,4.32,3.43,9c1.18,3.13,2.38,6.3,3.63,9.51H657q3.74-9.71,5.64-14.85t2.84-7.75c.62-1.73,1-3,1.23-3.82a9.36,9.36,0,0,0,.29-2c0-1.44-.34-2.4-1-2.89s-2.37-.9-5.05-1.23l1.18-3.72H677q-5.49,11.76-9.36,21.12t-8,20Q656,315.7,654,320.07a36,36,0,0,1-4.11,7.15,12.51,12.51,0,0,1-5,4,19.08,19.08,0,0,1-7.4,1.23,27.74,27.74,0,0,1-3.92-.39h-.3Z"/><path class="cls-2" d="M786.37,303.68q6.78,0,6.77-9.71V260.74c0-3.17-.52-5.59-1.55-7.23s-3-2.48-5.75-2.48l1.07-3.55h20.4a16.75,16.75,0,0,1,11.14,3.74q4.45,3.74,4.45,10.55a14,14,0,0,1-2.45,8.12,10.59,10.59,0,0,1-6.64,4.48v.19a18.76,18.76,0,0,1,9.4,5.6q3.25,3.82,3.26,10.36a16.76,16.76,0,0,1-4.46,12,14.76,14.76,0,0,1-11.22,4.72H785.3Zm13.55-31q9.35,0,12.78-2.33t3.43-7.75a11.09,11.09,0,0,0-2.89-8c-1.94-2-4.62-3-8.07-3a4.11,4.11,0,0,0-4.19,2.8q-1.07,2.81-1.06,11.39Zm0,4.11v15.31c0,3.05.11,6.44.35,10.17a29.79,29.79,0,0,0,8,.84,9.64,9.64,0,0,0,7.84-3.41q2.85-3.4,2.85-9.38,0-6.25-3.52-9.75t-10.2-3.78Z"/><path class="cls-2" d="M836.35,307.23l1.07-3.55c2.08-.12,3.46-.49,4.15-1.12s1-1.77,1-3.45V275.4c0-2.18-.42-3.61-1.25-4.3s-2.61-1-5.34-1l1.07-3.55a82.72,82.72,0,0,0,11.4-3.18v12.51h.18a17,17,0,0,1,5.61-9,15.34,15.34,0,0,1,10.16-3.5l-2.67,7.85a27.11,27.11,0,0,0-5.75.56,6.36,6.36,0,0,0-3,1.77,15.35,15.35,0,0,0-2.8,6.77,71.59,71.59,0,0,0-.85,12.83,41.57,41.57,0,0,0,.27,5.51,6.68,6.68,0,0,0,1.07,3,4.4,4.4,0,0,0,2.49,1.59,18.8,18.8,0,0,0,4.73.46l-1.07,3.55Z"/><path class="cls-2" d="M906.67,307.23H895.5v-6.35h-.19a18.32,18.32,0,0,1-5.73,5.79,15.8,15.8,0,0,1-7.87,1.68,12.34,12.34,0,0,1-8-2.71,9.07,9.07,0,0,1-3.35-7.47,9.61,9.61,0,0,1,1.35-5,13.84,13.84,0,0,1,3.58-3.92,31.32,31.32,0,0,1,4.75-2.94q2.52-1.26,6.34-2.85a73.37,73.37,0,0,0,8.57-4.1v-4.58a4.7,4.7,0,0,0-2.19-4.1q-2.19-1.5-6.85-1.5a54.84,54.84,0,0,0-10.8,1.59c-.81.19-1.46.34-2,.47l2.24-6.07a31.77,31.77,0,0,1,5.17-1.31,49.37,49.37,0,0,1,7.77-.47q7.63,0,10.67,2.52t3,8.5V299.2a4.08,4.08,0,0,0,1.3,3.27q1.3,1.13,4.84,1.21Zm-11.73-23.71c-1.43.68-2.89,1.37-4.38,2.05a54.36,54.36,0,0,0-9.69,5.28,6.87,6.87,0,0,0-2.88,5.74,6.45,6.45,0,0,0,1.81,4.67,6.06,6.06,0,0,0,4.52,1.86c3.41,0,6-1,7.87-3.08a10.47,10.47,0,0,0,2.75-7.19Z"/><path class="cls-2" d="M949.61,280.53c0-4-.74-6.89-2.24-8.54s-3.89-2.48-7.18-2.48q-5.88,0-8.59,4.49t-2.71,15.12v4.39a27.87,27.87,0,0,0,.38,5.22,5.72,5.72,0,0,0,1.26,2.85A4.94,4.94,0,0,0,933,303a28.87,28.87,0,0,0,4.48.7l-1.12,3.55H915.27l1.12-3.55a24.77,24.77,0,0,0,3-1,3,3,0,0,0,1.49-1.4,7.63,7.63,0,0,0,.7-2.71,50.53,50.53,0,0,0,.19-5.18v-12.6a53.32,53.32,0,0,0-.23-5.69,6.39,6.39,0,0,0-.94-2.94,3.29,3.29,0,0,0-1.91-1.31,17.36,17.36,0,0,0-3.64-.42l1.12-3.55a82,82,0,0,0,12.13-3.55v9.71h.19a35,35,0,0,1,7.09-7.37q3.27-2.34,8.87-2.34a12,12,0,0,1,8.91,3.32,11.21,11.21,0,0,1,3.32,8.26v23a6,6,0,0,0,1.35,4.3q1.35,1.4,4.81,1.49l-1.12,3.55h-20l1.12-3.55h.1a22.44,22.44,0,0,0,3.5-.74,3.83,3.83,0,0,0,1.82-1.4,6.84,6.84,0,0,0,1-3,44.78,44.78,0,0,0,.28-5.83Z"/><path class="cls-2" d="M1003.14,307.23l-.36-4.11a12.85,12.85,0,0,1-5.61,3.92,19.93,19.93,0,0,1-7,1.31q-8.37,0-13.28-6T972,286.23q0-10.46,5.53-16.67t14.88-6.21a19.51,19.51,0,0,1,10.42,2.8V254.49c0-2.37-.46-3.92-1.38-4.67s-3.07-1.12-6.46-1.12l1.07-3.55c2.37-.56,4.9-1.27,7.57-2.15s5-1.71,7-2.52q-.54,6.17-.8,11.81c-.18,3.77-.27,4.53-.27,9.2v31.92q0,6.07,1.29,8.08c.87,1.34,2.57,2.07,5.13,2.19l-1.07,3.55Zm-.36-27.73a13.51,13.51,0,0,0-1-5.41,9.4,9.4,0,0,0-2.63-3.59,9.82,9.82,0,0,0-3.78-1.92,18.06,18.06,0,0,0-4.55-.56q-5.79,0-8.68,4.3t-2.9,12.13q0,8.31,4.1,13.63a14,14,0,0,0,4.23,3.74,9.9,9.9,0,0,0,4.86,1.3,14.11,14.11,0,0,0,5.25-1.07,23,23,0,0,0,5.08-2.85Z"/><path class="cls-2" d="M1025.69,293.23l4.12-2.24v4.85a7.18,7.18,0,0,0,2.66,5.46q2.67,2.38,7.63,2.38c2.81,0,4.94-.57,6.41-1.73a5.39,5.39,0,0,0,2.2-4.43,6.72,6.72,0,0,0-2.62-5.65,37.6,37.6,0,0,0-8-4.24c-2.18-.88-3.9-1.64-5.14-2.29a24,24,0,0,1-3.65-2.38,10,10,0,0,1-2.81-3.5,10.73,10.73,0,0,1-1-4.81,10.41,10.41,0,0,1,3.65-8q3.64-3.32,10.39-3.32c1.31,0,2.74,0,4.3.14s3.78.27,6.64.52l3.47.28v10.83l-4.12,2.14a23.24,23.24,0,0,0-.42-5,4.77,4.77,0,0,0-1.5-2.71,6.3,6.3,0,0,0-3-1.21,31.09,31.09,0,0,0-5.14-.33c-3.12,0-5.2.38-6.22,1.12s-1.55,2.15-1.55,4.2a5,5,0,0,0,2.34,4.34,41.14,41.14,0,0,0,7.21,3.69q3.36,1.39,5.42,2.43a20.63,20.63,0,0,1,4,2.61,12.53,12.53,0,0,1,3.09,3.78,10.88,10.88,0,0,1,1.17,5.18,14.31,14.31,0,0,1-.8,4.72,11.47,11.47,0,0,1-2.57,4.15,12.79,12.79,0,0,1-4.59,3,17.79,17.79,0,0,1-6.64,1.12c-1.87,0-3.49-.05-4.87-.14s-3-.27-5-.51l-5-.47Z"/></g></svg>