<svg width="51" height="51" viewBox="0 0 51 51" fill="none" xmlns="http://www.w3.org/2000/svg">
<path d="M25.6175 12.8724V38.1138M19.3072 30.7517C19.3072 32.4943 20.7198 33.9069 22.4624 33.9069H27.721C30.0444 33.9069 31.9279 32.0234 31.9279 29.7C31.9279 27.3766 30.0444 25.4931 27.721 25.4931H23.5141C21.1907 25.4931 19.3072 23.6096 19.3072 21.2862C19.3072 18.9628 21.1907 17.0793 23.5141 17.0793H27.721C30.0444 17.0793 31.9279 18.9628 31.9279 21.2862M45.6003 25.4931C45.6003 36.5293 36.6537 45.4759 25.6175 45.4759C14.5814 45.4759 5.63477 36.5293 5.63477 25.4931C5.63477 14.4569 14.5814 5.51035 25.6175 5.51035C36.6537 5.51035 45.6003 14.4569 45.6003 25.4931Z" stroke="#FF2B5F" stroke-width="2.52414" stroke-linecap="round" stroke-linejoin="round"/>
</svg>
